<svg id="visual" viewBox="0 0 900 600" width="900" height="600" xmlns="http://www.w3.org/2000/svg" xmlns:xlink="http://www.w3.org/1999/xlink" version="1.1"><path d="M0 97L13.7 90C27.3 83 54.7 69 82 63C109.3 57 136.7 59 163.8 76C191 93 218 125 245.2 125C272.3 125 299.7 93 327 84C354.3 75 381.7 89 409 92C436.3 95 463.7 87 491 98C518.3 109 545.7 139 573 137C600.3 135 627.7 101 654.8 96C682 91 709 115 736.2 129C763.3 143 790.7 147 818 149C845.3 151 872.7 151 886.3 151L900 151L900 0L886.3 0C872.7 0 845.3 0 818 0C790.7 0 763.3 0 736.2 0C709 0 682 0 654.8 0C627.7 0 600.3 0 573 0C545.7 0 518.3 0 491 0C463.7 0 436.3 0 409 0C381.7 0 354.3 0 327 0C299.7 0 272.3 0 245.2 0C218 0 191 0 163.8 0C136.7 0 109.3 0 82 0C54.7 0 27.3 0 13.7 0L0 0Z" fill="#ffffff"></path><path d="M0 133L13.7 133C27.3 133 54.7 133 82 131C109.3 129 136.7 125 163.8 139C191 153 218 185 245.2 191C272.3 197 299.7 177 327 175C354.3 173 381.7 189 409 182C436.3 175 463.7 145 491 146C518.3 147 545.7 179 573 177C600.3 175 627.7 139 654.8 143C682 147 709 191 736.2 205C763.3 219 790.7 203 818 203C845.3 203 872.7 219 886.3 227L900 235L900 149L886.3 149C872.7 149 845.3 149 818 147C790.7 145 763.3 141 736.2 127C709 113 682 89 654.8 94C627.7 99 600.3 133 573 135C545.7 137 518.3 107 491 96C463.7 85 436.3 93 409 90C381.7 87 354.3 73 327 82C299.7 91 272.3 123 245.2 123C218 123 191 91 163.8 74C136.7 57 109.3 55 82 61C54.7 67 27.3 81 13.7 88L0 95Z" fill="#d3d2e3"></path><path d="M0 373L13.7 356C27.3 339 54.7 305 82 302C109.3 299 136.7 327 163.8 350C191 373 218 391 245.2 383C272.3 375 299.7 341 327 337C354.3 333 381.7 359 409 367C436.3 375 463.7 365 491 358C518.3 351 545.7 347 573 337C600.3 327 627.7 311 654.8 322C682 333 709 371 736.2 381C763.3 391 790.7 373 818 366C845.3 359 872.7 363 886.3 365L900 367L900 233L886.3 225C872.7 217 845.3 201 818 201C790.7 201 763.3 217 736.2 203C709 189 682 145 654.8 141C627.7 137 600.3 173 573 175C545.7 177 518.3 145 491 144C463.7 143 436.3 173 409 180C381.7 187 354.3 171 327 173C299.7 175 272.3 195 245.2 189C218 183 191 151 163.8 137C136.7 123 109.3 127 82 129C54.7 131 27.3 131 13.7 131L0 131Z" fill="#a7a6c7"></path><path d="M0 505L13.7 479C27.3 453 54.7 401 82 395C109.3 389 136.7 429 163.8 449C191 469 218 469 245.2 462C272.3 455 299.7 441 327 440C354.3 439 381.7 451 409 457C436.3 463 463.7 463 491 451C518.3 439 545.7 415 573 404C600.3 393 627.7 395 654.8 407C682 419 709 441 736.2 453C763.3 465 790.7 467 818 465C845.3 463 872.7 457 886.3 454L900 451L900 365L886.3 363C872.7 361 845.3 357 818 364C790.7 371 763.3 389 736.2 379C709 369 682 331 654.8 320C627.7 309 600.3 325 573 335C545.7 345 518.3 349 491 356C463.7 363 436.3 373 409 365C381.7 357 354.3 331 327 335C299.7 339 272.3 373 245.2 381C218 389 191 371 163.8 348C136.7 325 109.3 297 82 300C54.7 303 27.3 337 13.7 354L0 371Z" fill="#7c7dab"></path><path d="M0 601L13.7 601C27.3 601 54.7 601 82 601C109.3 601 136.7 601 163.8 601C191 601 218 601 245.2 601C272.3 601 299.7 601 327 601C354.3 601 381.7 601 409 601C436.3 601 463.7 601 491 601C518.3 601 545.7 601 573 601C600.3 601 627.7 601 654.8 601C682 601 709 601 736.2 601C763.3 601 790.7 601 818 601C845.3 601 872.7 601 886.3 601L900 601L900 449L886.3 452C872.7 455 845.3 461 818 463C790.7 465 763.3 463 736.2 451C709 439 682 417 654.8 405C627.7 393 600.3 391 573 402C545.7 413 518.3 437 491 449C463.7 461 436.3 461 409 455C381.7 449 354.3 437 327 438C299.7 439 272.3 453 245.2 460C218 467 191 467 163.8 447C136.7 427 109.3 387 82 393C54.7 399 27.3 451 13.7 477L0 503Z" fill="#505690"></path></svg>