<svg xmlns="http://www.w3.org/2000/svg" xmlns:xlink="http://www.w3.org/1999/xlink" id="visual" version="1.1" viewBox="0 353 960 188"><path d="M0 367L22.8 365.2C45.7 363.3 91.3 359.7 137 358.7C182.7 357.7 228.3 359.3 274 363.5C319.7 367.7 365.3 374.3 411.2 371.3C457 368.3 503 355.7 548.8 356.8C594.7 358 640.3 373 686 377.7C731.7 382.3 777.3 376.7 823 375C868.7 373.3 914.3 375.7 937.2 376.8L960 378L960 541L937.2 541C914.3 541 868.7 541 823 541C777.3 541 731.7 541 686 541C640.3 541 594.7 541 548.8 541C503 541 457 541 411.2 541C365.3 541 319.7 541 274 541C228.3 541 182.7 541 137 541C91.3 541 45.7 541 22.8 541L0 541Z" fill="#414584"/><path d="M0 353L22.8 357.3C45.7 361.7 91.3 370.3 137 370.7C182.7 371 228.3 363 274 369.5C319.7 376 365.3 397 411.2 407.5C457 418 503 418 548.8 419C594.7 420 640.3 422 686 416.7C731.7 411.3 777.3 398.7 823 388C868.7 377.3 914.3 368.7 937.2 364.3L960 360L960 541L937.2 541C914.3 541 868.7 541 823 541C777.3 541 731.7 541 686 541C640.3 541 594.7 541 548.8 541C503 541 457 541 411.2 541C365.3 541 319.7 541 274 541C228.3 541 182.7 541 137 541C91.3 541 45.7 541 22.8 541L0 541Z" fill="#56679e"/><path d="M0 458L22.8 458.3C45.7 458.7 91.3 459.3 137 456.3C182.7 453.3 228.3 446.7 274 442.8C319.7 439 365.3 438 411.2 431.8C457 425.7 503 414.3 548.8 415C594.7 415.7 640.3 428.3 686 430.2C731.7 432 777.3 423 823 421C868.7 419 914.3 424 937.2 426.5L960 429L960 541L937.2 541C914.3 541 868.7 541 823 541C777.3 541 731.7 541 686 541C640.3 541 594.7 541 548.8 541C503 541 457 541 411.2 541C365.3 541 319.7 541 274 541C228.3 541 182.7 541 137 541C91.3 541 45.7 541 22.8 541L0 541Z" fill="#7189b7"/><path d="M0 435L22.8 440.7C45.7 446.3 91.3 457.7 137 465.7C182.7 473.7 228.3 478.3 274 473.7C319.7 469 365.3 455 411.2 452.3C457 449.7 503 458.3 548.8 462.8C594.7 467.3 640.3 467.7 686 464C731.7 460.3 777.3 452.7 823 454.3C868.7 456 914.3 467 937.2 472.5L960 478L960 541L937.2 541C914.3 541 868.7 541 823 541C777.3 541 731.7 541 686 541C640.3 541 594.7 541 548.8 541C503 541 457 541 411.2 541C365.3 541 319.7 541 274 541C228.3 541 182.7 541 137 541C91.3 541 45.7 541 22.8 541L0 541Z" fill="#92accf"/><path d="M0 487L22.8 485.3C45.7 483.7 91.3 480.3 137 483C182.7 485.7 228.3 494.3 274 493.7C319.7 493 365.3 483 411.2 478.8C457 474.7 503 476.3 548.8 479.7C594.7 483 640.3 488 686 493.2C731.7 498.3 777.3 503.7 823 507.5C868.7 511.3 914.3 513.7 937.2 514.8L960 516L960 541L937.2 541C914.3 541 868.7 541 823 541C777.3 541 731.7 541 686 541C640.3 541 594.7 541 548.8 541C503 541 457 541 411.2 541C365.3 541 319.7 541 274 541C228.3 541 182.7 541 137 541C91.3 541 45.7 541 22.8 541L0 541Z" fill="#b8cfe6"/></svg>