<svg xmlns="http://www.w3.org/2000/svg" version="1.1" xmlns:xlink="http://www.w3.org/1999/xlink" xmlns:svgjs="http://svgjs.com/svgjs" width="1440" height="250" preserveAspectRatio="none" viewBox="0 0 1440 250"><g mask="url(&quot;#SvgjsMask1009&quot;)" fill="none"><rect width="1440" height="250" x="0" y="0" fill="rgba(255, 255, 255, 1)"></rect><path d="M21 250L271 0L356.5 0L106.5 250z" fill="url(#SvgjsLinearGradient1010)"></path><path d="M276.6 250L526.6 0L633.1 0L383.1 250z" fill="url(#SvgjsLinearGradient1010)"></path><path d="M504.20000000000005 250L754.2 0L1067.7 0L817.7 250z" fill="url(#SvgjsLinearGradient1010)"></path><path d="M739.8000000000001 250L989.8000000000001 0L1103.8000000000002 0L853.8000000000001 250z" fill="url(#SvgjsLinearGradient1010)"></path><path d="M1432 250L1182 0L1119 0L1369 250z" fill="url(#SvgjsLinearGradient1011)"></path><path d="M1167.4 250L917.4000000000001 0L648.9000000000001 0L898.9000000000001 250z" fill="url(#SvgjsLinearGradient1011)"></path><path d="M963.8 250L713.8 0L476.79999999999995 0L726.8 250z" fill="url(#SvgjsLinearGradient1011)"></path><path d="M719.1999999999999 250L469.19999999999993 0L257.69999999999993 0L507.69999999999993 250z" fill="url(#SvgjsLinearGradient1011)"></path><path d="M1308.4687065111189 250L1440 118.46870651111897L1440 250z" fill="url(#SvgjsLinearGradient1010)"></path><path d="M0 250L131.53129348888103 250L 0 118.46870651111897z" fill="url(#SvgjsLinearGradient1011)"></path></g><defs><mask id="SvgjsMask1009"><rect width="1440" height="250" fill="#ffffff"></rect></mask><linearGradient x1="0%" y1="100%" x2="100%" y2="0%" id="SvgjsLinearGradient1010"><stop stop-color="rgba(0, 45, 133, 0.2)" offset="0"></stop><stop stop-opacity="0" stop-color="rgba(0, 45, 133, 0.2)" offset="0.66"></stop></linearGradient><linearGradient x1="100%" y1="100%" x2="0%" y2="0%" id="SvgjsLinearGradient1011"><stop stop-color="rgba(0, 45, 133, 0.2)" offset="0"></stop><stop stop-opacity="0" stop-color="rgba(0, 45, 133, 0.2)" offset="0.66"></stop></linearGradient></defs></svg>